<svg xmlns="http://www.w3.org/2000/svg" width="150" height="39" fill="none" viewBox="0 0 150 39">
    <path fill="url(#a)" fill-rule="evenodd" d="M18.325 21.238a6.882 6.882 0 0 1-8.188-1.246 6.708 6.708 0 0 1-.952-8.144c1.572-2.617 4.718-3.872 7.684-3.064 2.966.808 5.02 3.48 5.017 6.524a6.706 6.706 0 0 1-.052.722c.38 2.536.971 11.508-6.79 22.97 0 0 15.051-15.465 15.051-23.692.151-5.418-2.683-10.49-7.4-13.243a15.185 15.185 0 0 0-15.29 0C2.688 4.818-.145 9.89.005 15.308a13.429 13.429 0 0 0 1.42 5.31c6.76 6.124 13.47 3.036 16.9.62z" clip-rule="evenodd"/>
    <path fill="#21BC87" fill-rule="evenodd" d="M21.834 16.03a6.652 6.652 0 0 1-.976 2.814l-.19.444c-1.395 3.07-4.658 7.539-12.281 12.053A109.004 109.004 0 0 0 15.05 39c7.761-11.462 7.17-20.434 6.784-22.97z" clip-rule="evenodd"/>
    <path fill="#8859E0" fill-rule="evenodd" d="M20.685 19.282s-.172.182-.476.46a6.84 6.84 0 0 1-1.867 1.496c-3.447 2.416-10.145 5.504-16.9-.62 1.614 3.537 4.36 7.431 6.962 10.723 7.611-4.52 10.874-8.989 12.281-12.059z" clip-rule="evenodd"/>
    <path fill="#2F3467" fill-rule="evenodd" d="M49.163 31.693a9.694 9.694 0 0 1-4.103-.706c-1.917-.982-2.52-3.068-2.52-6.784v-5.371h-2.965v-4.636a7.733 7.733 0 0 0 1.707-.161c1.138-.155 1.582-.615 1.707-2.148.091-.736.154-1.69.182-2.425h4.553v4.452h4.193v4.94H47.77v4.269c-.02.771.051 1.543.21 2.297.336.954 1.093 1.15 2.846 1.15h1.138v5.17l-2.8-.047zM53.664 13.891h4.439l.762 3.654c.57-2.792 2.339-3.9 5.531-3.9h1.002v5.859h-2.066a6.079 6.079 0 0 0-2.492.43c-1.138.523-1.52 1.724-1.52 3.866v7.893h-5.656V13.891zM69.99 7.326c-2.247 0-3.312.706-3.312 2.791 0 2.086.883 2.77 3.312 2.77 2.282 0 3.312-.684 3.312-2.77 0-2.085-1.064-2.791-3.312-2.791zm0 7.025a19.177 19.177 0 0 1-2.219-.155 1.248 1.248 0 0 1-.671-.161v17.658h5.747v-17.71a5.434 5.434 0 0 1-1.792.305 12.18 12.18 0 0 1-1.065.063zM80.722 37.765v-8.65c.882 1.837 2.527 2.912 5.128 2.906a6.255 6.255 0 0 0 6.02-3.809c.66-1.559.97-3.246.91-4.94v-.523c0-6.135-2.617-9.237-6.965-9.237a5.41 5.41 0 0 0-5.32 3.447l-.518-3.068h-4.695v23.874h5.44zm6.596-15.004v.43h.005c0 2.792-1.348 4.177-3.351 4.177s-3.312-1.47-3.312-4.234v-.402c0-3.004 1.337-4.48 3.346-4.48 1.912 0 3.311 1.35 3.311 4.509zM94.555 31.693V8.061h5.503v8.559c.973-1.936 2.703-3.102 5.258-3.102 3.983 0 5.776 2.453 5.776 6.784v11.391h-5.566v-9.73c0-2.178-.569-3.62-2.617-3.62-2.049 0-2.845 1.626-2.845 4.05v9.3h-5.509zM112.799 22.652v.574c0 5.946 3.135 8.927 8.86 8.927 3.619 0 6.293-1.321 7.813-3.992a10.14 10.14 0 0 0 1.092-4.94v-.575c0-3.987-1.553-6.687-4.228-8.1a9.725 9.725 0 0 0-4.649-1.045c-3.465 0-6.231 1.384-7.75 4.084a10.216 10.216 0 0 0-1.138 5.067zm12.28 0v.51l.005-.005c0 2.792-1.303 4.16-3.351 4.16-2.049 0-3.414-1.414-3.414-4.177v-.488c0-3.005 1.348-4.418 3.414-4.418 2.162 0 3.346 1.5 3.346 4.418zM137.763 37.765v-8.65c.882 1.837 2.532 2.912 5.144 2.906a6.256 6.256 0 0 0 6.021-3.809c.659-1.559.97-3.246.91-4.94v-.523c0-6.135-2.612-9.237-6.959-9.237a5.41 5.41 0 0 0-5.321 3.447l-.518-3.068h-4.711v23.874h5.434zm6.595-15.004v.43c0 2.792-1.343 4.177-3.346 4.177s-3.311-1.47-3.311-4.234v-.402c0-3.004 1.337-4.48 3.345-4.48 1.912 0 3.312 1.35 3.312 4.509z" clip-rule="evenodd"/>
    <defs>
        <radialGradient id="a" cx="0" cy="0" r="1" gradientTransform="matrix(39.1615 0 0 50.7395 17.888 37.474)" gradientUnits="userSpaceOnUse">
            <stop stop-color="#21BC87"/>
            <stop offset=".35" stop-color="#2F3467"/>
            <stop offset=".59" stop-color="#2F3467"/>
            <stop offset="1" stop-color="#8859E0"/>
        </radialGradient>
    </defs>
</svg>
